<svg aria-roledescription="gitGraph" role="graphics-document document" viewBox="-189.1640625 -34.70000076293945 947.1640625 684.7000122070312" style="max-width: 947.164px; background-color: transparent;" xmlns:xlink="http://www.w3.org/1999/xlink" xmlns="http://www.w3.org/2000/svg" width="100%" id="my-svg"><style>#my-svg{font-family:"trebuchet ms",verdana,arial,sans-serif;font-size:16px;fill:#ccc;}#my-svg .error-icon{fill:#a44141;}#my-svg .error-text{fill:#ddd;stroke:#ddd;}#my-svg .edge-thickness-normal{stroke-width:1px;}#my-svg .edge-thickness-thick{stroke-width:3.5px;}#my-svg .edge-pattern-solid{stroke-dasharray:0;}#my-svg .edge-thickness-invisible{stroke-width:0;fill:none;}#my-svg .edge-pattern-dashed{stroke-dasharray:3;}#my-svg .edge-pattern-dotted{stroke-dasharray:2;}#my-svg .marker{fill:lightgrey;stroke:lightgrey;}#my-svg .marker.cross{stroke:lightgrey;}#my-svg svg{font-family:"trebuchet ms",verdana,arial,sans-serif;font-size:16px;}#my-svg p{margin:0;}#my-svg .commit-id,#my-svg .commit-msg,#my-svg .branch-label{fill:lightgrey;color:lightgrey;font-family:'trebuchet ms',verdana,arial,sans-serif;font-family:var(--mermaid-font-family);}#my-svg .branch-label0{fill:#2c2c2c;}#my-svg .commit0{stroke:hsl(180, 1.5873015873%, 48.3529411765%);fill:hsl(180, 1.5873015873%, 48.3529411765%);}#my-svg .commit-highlight0{stroke:rgb(133.6571428571, 129.7428571428, 129.7428571428);fill:rgb(133.6571428571, 129.7428571428, 129.7428571428);}#my-svg .label0{fill:hsl(180, 1.5873015873%, 48.3529411765%);}#my-svg .arrow0{stroke:hsl(180, 1.5873015873%, 48.3529411765%);}#my-svg .branch-label1{fill:lightgrey;}#my-svg .commit1{stroke:hsl(321.6393442623, 65.5913978495%, 38.2352941176%);fill:hsl(321.6393442623, 65.5913978495%, 38.2352941176%);}#my-svg .commit-highlight1{stroke:rgb(93.5483870969, 221.4516129033, 139.677419355);fill:rgb(93.5483870969, 221.4516129033, 139.677419355);}#my-svg .label1{fill:hsl(321.6393442623, 65.5913978495%, 38.2352941176%);}#my-svg .arrow1{stroke:hsl(321.6393442623, 65.5913978495%, 38.2352941176%);}#my-svg .branch-label2{fill:lightgrey;}#my-svg .commit2{stroke:hsl(194.4, 16.5562913907%, 49.6078431373%);fill:hsl(194.4, 16.5562913907%, 49.6078431373%);}#my-svg .commit-highlight2{stroke:rgb(149.4437086091, 117.6092715231, 107.5562913906);fill:rgb(149.4437086091, 117.6092715231, 107.5562913906);}#my-svg .label2{fill:hsl(194.4, 16.5562913907%, 49.6078431373%);}#my-svg .arrow2{stroke:hsl(194.4, 16.5562913907%, 49.6078431373%);}#my-svg .branch-label3{fill:#2c2c2c;}#my-svg .commit3{stroke:hsl(23.0769230769, 49.0566037736%, 40.7843137255%);fill:hsl(23.0769230769, 49.0566037736%, 40.7843137255%);}#my-svg .commit-highlight3{stroke:rgb(99.9811320754, 162.7735849057, 202.0188679245);fill:rgb(99.9811320754, 162.7735849057, 202.0188679245);}#my-svg .label3{fill:hsl(23.0769230769, 49.0566037736%, 40.7843137255%);}#my-svg .arrow3{stroke:hsl(23.0769230769, 49.0566037736%, 40.7843137255%);}#my-svg .branch-label4{fill:lightgrey;}#my-svg .commit4{stroke:hsl(0, 83.3333333333%, 43.5294117647%);fill:hsl(0, 83.3333333333%, 43.5294117647%);}#my-svg .commit-highlight4{stroke:rgb(51.5000000001, 236.5, 236.5);fill:rgb(51.5000000001, 236.5, 236.5);}#my-svg .label4{fill:hsl(0, 83.3333333333%, 43.5294117647%);}#my-svg .arrow4{stroke:hsl(0, 83.3333333333%, 43.5294117647%);}#my-svg .branch-label5{fill:lightgrey;}#my-svg .commit5{stroke:hsl(289.1666666667, 100%, 24.1176470588%);fill:hsl(289.1666666667, 100%, 24.1176470588%);}#my-svg .commit-highlight5{stroke:rgb(154.2083333334, 255, 132.0000000001);fill:rgb(154.2083333334, 255, 132.0000000001);}#my-svg .label5{fill:hsl(289.1666666667, 100%, 24.1176470588%);}#my-svg .arrow5{stroke:hsl(289.1666666667, 100%, 24.1176470588%);}#my-svg .branch-label6{fill:lightgrey;}#my-svg .commit6{stroke:hsl(35.1315789474, 98.7012987013%, 40.1960784314%);fill:hsl(35.1315789474, 98.7012987013%, 40.1960784314%);}#my-svg .commit-highlight6{stroke:rgb(51.331168831, 135.1948051946, 253.6688311688);fill:rgb(51.331168831, 135.1948051946, 253.6688311688);}#my-svg .label6{fill:hsl(35.1315789474, 98.7012987013%, 40.1960784314%);}#my-svg .arrow6{stroke:hsl(35.1315789474, 98.7012987013%, 40.1960784314%);}#my-svg .branch-label7{fill:lightgrey;}#my-svg .commit7{stroke:hsl(106.1538461538, 84.4155844156%, 35.0980392157%);fill:hsl(106.1538461538, 84.4155844156%, 35.0980392157%);}#my-svg .commit-highlight7{stroke:rgb(206.1818181817, 89.948051948, 241.051948052);fill:rgb(206.1818181817, 89.948051948, 241.051948052);}#my-svg .label7{fill:hsl(106.1538461538, 84.4155844156%, 35.0980392157%);}#my-svg .arrow7{stroke:hsl(106.1538461538, 84.4155844156%, 35.0980392157%);}#my-svg .branch{stroke-width:1;stroke:lightgrey;stroke-dasharray:2;}#my-svg .commit-label{font-size:10px;fill:rgb(183.8476190475, 181.5523809523, 181.5523809523);}#my-svg .commit-label-bkg{font-size:10px;fill:hsl(180, 1.5873015873%, 28.3529411765%);opacity:0.5;}#my-svg .tag-label{font-size:10px;fill:#e0dfdf;}#my-svg .tag-label-bkg{fill:#1f2020;stroke:#cccccc;}#my-svg .tag-hole{fill:#ccc;}#my-svg .commit-merge{stroke:#1f2020;fill:#1f2020;}#my-svg .commit-reverse{stroke:#1f2020;fill:#1f2020;stroke-width:3;}#my-svg .commit-highlight-inner{stroke:#1f2020;fill:#1f2020;}#my-svg .arrow{stroke-width:8;stroke-linecap:round;fill:none;}#my-svg .gitTitleText{text-anchor:middle;font-size:18px;fill:#ccc;}#my-svg :root{--mermaid-font-family:"trebuchet ms",verdana,arial,sans-serif;}</style><g/><g class="commit-bullets"/><g class="commit-labels"/><g><line class="branch branch0" y2="0" x2="750" y1="0" x1="0"/><rect transform="translate(-19, -8.5)" height="21" width="52.6875" y="-0.5" x="-68.6875" ry="4" rx="4" class="branchLabelBkg label0"/><g class="branchLabel"><g transform="translate(-78.6875, -9.5)" class="label branch-label0"><text><tspan class="row" x="0" dy="1em" xml:space="preserve">main</tspan></text></g></g><line class="branch branch1" y2="90" x2="750" y1="90" x1="0"/><rect transform="translate(-19, 81.5)" height="21" width="117.609375" y="-0.5" x="-133.609375" ry="4" rx="4" class="branchLabelBkg label1"/><g class="branchLabel"><g transform="translate(-143.609375, 80.5)" class="label branch-label1"><text><tspan class="row" x="0" dy="1em" xml:space="preserve">release/v2.0.x</tspan></text></g></g><line class="branch branch2" y2="180" x2="750" y1="180" x1="0"/><rect transform="translate(-19, 171.5)" height="21" width="88.265625" y="-0.5" x="-104.265625" ry="4" rx="4" class="branchLabelBkg label2"/><g class="branchLabel"><g transform="translate(-114.265625, 170.5)" class="label branch-label2"><text><tspan class="row" x="0" dy="1em" xml:space="preserve">feature/UI</tspan></text></g></g><line class="branch branch3" y2="270" x2="750" y1="270" x1="0"/><rect transform="translate(-19, 261.5)" height="21" width="112.6015625" y="-0.5" x="-128.6015625" ry="4" rx="4" class="branchLabelBkg label3"/><g class="branchLabel"><g transform="translate(-138.6015625, 260.5)" class="label branch-label3"><text><tspan class="row" x="0" dy="1em" xml:space="preserve">feature/AJAX</tspan></text></g></g><line class="branch branch4" y2="360" x2="750" y1="360" x1="0"/><rect transform="translate(-19, 351.5)" height="21" width="117.609375" y="-0.5" x="-133.609375" ry="4" rx="4" class="branchLabelBkg label4"/><g class="branchLabel"><g transform="translate(-143.609375, 350.5)" class="label branch-label4"><text><tspan class="row" x="0" dy="1em" xml:space="preserve">release/v3.0.x</tspan></text></g></g><line class="branch branch5" y2="450" x2="750" y1="450" x1="0"/><rect transform="translate(-19, 441.5)" height="21" width="94.484375" y="-0.5" x="-110.484375" ry="4" rx="4" class="branchLabelBkg label5"/><g class="branchLabel"><g transform="translate(-120.484375, 440.5)" class="label branch-label5"><text><tspan class="row" x="0" dy="1em" xml:space="preserve">feature/DB</tspan></text></g></g><line class="branch branch6" y2="540" x2="750" y1="540" x1="0"/><rect transform="translate(-19, 531.5)" height="21" width="111.40625" y="-0.5" x="-127.40625" ry="4" rx="4" class="branchLabelBkg label6"/><g class="branchLabel"><g transform="translate(-137.40625, 530.5)" class="label branch-label6"><text><tspan class="row" x="0" dy="1em" xml:space="preserve">bugfix/Button</tspan></text></g></g><line class="branch branch7" y2="630" x2="750" y1="630" x1="0"/><rect transform="translate(-19, 621)" height="22" width="146.1640625" y="-1" x="-162.1640625" ry="4" rx="4" class="branchLabelBkg label7"/><g class="branchLabel"><g transform="translate(-172.1640625, 620)" class="label branch-label7"><text><tspan class="row" x="0" dy="1em" xml:space="preserve">feature/UI_rework</tspan></text></g></g></g><g class="commit-arrows"><path class="arrow arrow2" d="M 10 0 L 10 160 A 20 20, 0, 0, 0, 30 180 L 60 180"/><path class="arrow arrow3" d="M 10 0 L 10 250 A 20 20, 0, 0, 0, 30 270 L 110 270"/><path class="arrow arrow1" d="M 10 0 L 10 70 A 20 20, 0, 0, 0, 30 90 L 160 90"/><path class="arrow arrow3" d="M 110 270 L 140 270 A 20 20, 0, 0, 0, 160 250 L 160 90"/><path class="arrow arrow2" d="M 60 180 L 210 180"/><path class="arrow arrow1" d="M 160 90 L 260 90"/><path class="arrow arrow2" d="M 210 180 L 240 180 A 20 20, 0, 0, 0, 260 160 L 260 90"/><path class="arrow arrow0" d="M 10 0 L 310 0"/><path class="arrow arrow1" d="M 260 90 L 290 90 A 20 20, 0, 0, 0, 310 70 L 310 0"/><path class="arrow arrow5" d="M 310 0 L 310 430 A 20 20, 0, 0, 0, 330 450 L 360 450"/><path class="arrow arrow4" d="M 310 0 L 310 340 A 20 20, 0, 0, 0, 330 360 L 410 360"/><path class="arrow arrow5" d="M 360 450 L 390 450 A 20 20, 0, 0, 0, 410 430 L 410 360"/><path class="arrow arrow6" d="M 260 90 L 260 520 A 20 20, 0, 0, 0, 280 540 L 460 540"/><path class="arrow arrow1" d="M 260 90 L 510 90"/><path class="arrow arrow6" d="M 460 540 L 490 540 A 20 20, 0, 0, 0, 510 520 L 510 90"/><path class="arrow arrow7" d="M 410 360 L 410 610 A 20 20, 0, 0, 0, 430 630 L 560 630"/><path class="arrow arrow4" d="M 410 360 L 610 360"/><path class="arrow arrow7" d="M 560 630 L 590 630 A 20 20, 0, 0, 0, 610 610 L 610 360"/><path class="arrow arrow4" d="M 610 360 L 660 360"/><path class="arrow arrow6" d="M 460 540 L 640 540 A 20 20, 0, 0, 0, 660 520 L 660 360"/><path class="arrow arrow0" d="M 310 0 L 710 0"/><path class="arrow arrow4" d="M 660 360 L 690 360 A 20 20, 0, 0, 0, 710 340 L 710 0"/></g><g class="commit-bullets"><circle class="commit 0-2a7d60f commit0" r="10" cy="0" cx="10"/><circle class="commit 1-390d0c9 commit2" r="10" cy="180" cx="60"/><circle class="commit 2-58f1f14 commit3" r="10" cy="270" cx="110"/><circle class="commit 3-dee98dd commit1" r="9" cy="90" cx="160"/><circle class="commit commit-merge 3-dee98dd commit1" r="6" cy="90" cx="160"/><circle class="commit 4-e9da295 commit2" r="10" cy="180" cx="210"/><circle class="commit 5-8ad7271 commit1" r="9" cy="90" cx="260"/><circle class="commit commit-merge 5-8ad7271 commit1" r="6" cy="90" cx="260"/><circle class="commit 6-1b860e7 commit0" r="9" cy="0" cx="310"/><circle class="commit commit-merge 6-1b860e7 commit0" r="6" cy="0" cx="310"/><circle class="commit 7-ff6c0ce commit5" r="10" cy="450" cx="360"/><circle class="commit 8-7c8d8f7 commit4" r="9" cy="360" cx="410"/><circle class="commit commit-merge 8-7c8d8f7 commit4" r="6" cy="360" cx="410"/><circle class="commit 9-b1e0458 commit6" r="10" cy="540" cx="460"/><circle class="commit 10-b2f4d0d commit1" r="9" cy="90" cx="510"/><circle class="commit commit-merge 10-b2f4d0d commit1" r="6" cy="90" cx="510"/><circle class="commit 11-c3db0a1 commit7" r="10" cy="630" cx="560"/><circle class="commit 12-ec8d216 commit4" r="9" cy="360" cx="610"/><circle class="commit commit-merge 12-ec8d216 commit4" r="6" cy="360" cx="610"/><circle class="commit 13-696daab commit4" r="9" cy="360" cx="660"/><circle class="commit commit-merge 13-696daab commit4" r="6" cy="360" cx="660"/><circle class="commit 14-0f8c351 commit0" r="9" cy="0" cx="710"/><circle class="commit commit-merge 14-0f8c351 commit0" r="6" cy="0" cx="710"/></g><g class="commit-labels"><polygon points="-15.83984375,-17.2  &#10;      -15.83984375,-21.2&#10;      -7.83984375,-26.7&#10;      27.83984375,-26.7&#10;      27.83984375,-11.7&#10;      -7.83984375,-11.7" class="tag-label-bkg"/><circle class="tag-hole" r="1.5" cx="-11.83984375" cy="-19.2"/><text x="-3.83984375" class="tag-label" y="-16">v1.0.0</text><polygon points="284.16015625,-17.2  &#10;      284.16015625,-21.2&#10;      292.16015625,-26.7&#10;      327.83984375,-26.7&#10;      327.83984375,-11.7&#10;      292.16015625,-11.7" class="tag-label-bkg"/><circle class="tag-hole" r="1.5" cx="288.16015625" cy="-19.2"/><text x="296.16015625" class="tag-label" y="-16">v2.0.0</text><polygon points="484.16015625,72.8  &#10;      484.16015625,68.8&#10;      492.16015625,63.3&#10;      527.83984375,63.3&#10;      527.83984375,78.3&#10;      492.16015625,78.3" class="tag-label-bkg"/><circle class="tag-hole" r="1.5" cx="488.16015625" cy="70.8"/><text x="496.16015625" class="tag-label" y="74">v2.0.1</text><polygon points="684.16015625,-17.2  &#10;      684.16015625,-21.2&#10;      692.16015625,-26.7&#10;      727.83984375,-26.7&#10;      727.83984375,-11.7&#10;      692.16015625,-11.7" class="tag-label-bkg"/><circle class="tag-hole" r="1.5" cx="688.16015625" cy="-19.2"/><text x="696.16015625" class="tag-label" y="-16">v3.0.0</text></g></svg>