<svg aria-roledescription="gitGraph" role="graphics-document document" viewBox="-214.875 -34.70000076293945 722.875 324.70001220703125" style="max-width: 722.875px; background-color: transparent;" xmlns:xlink="http://www.w3.org/1999/xlink" xmlns="http://www.w3.org/2000/svg" width="100%" id="my-svg"><style>#my-svg{font-family:"trebuchet ms",verdana,arial,sans-serif;font-size:16px;fill:#ccc;}#my-svg .error-icon{fill:#a44141;}#my-svg .error-text{fill:#ddd;stroke:#ddd;}#my-svg .edge-thickness-normal{stroke-width:1px;}#my-svg .edge-thickness-thick{stroke-width:3.5px;}#my-svg .edge-pattern-solid{stroke-dasharray:0;}#my-svg .edge-thickness-invisible{stroke-width:0;fill:none;}#my-svg .edge-pattern-dashed{stroke-dasharray:3;}#my-svg .edge-pattern-dotted{stroke-dasharray:2;}#my-svg .marker{fill:lightgrey;stroke:lightgrey;}#my-svg .marker.cross{stroke:lightgrey;}#my-svg svg{font-family:"trebuchet ms",verdana,arial,sans-serif;font-size:16px;}#my-svg p{margin:0;}#my-svg .commit-id,#my-svg .commit-msg,#my-svg .branch-label{fill:lightgrey;color:lightgrey;font-family:'trebuchet ms',verdana,arial,sans-serif;font-family:var(--mermaid-font-family);}#my-svg .branch-label0{fill:#2c2c2c;}#my-svg .commit0{stroke:hsl(180, 1.5873015873%, 48.3529411765%);fill:hsl(180, 1.5873015873%, 48.3529411765%);}#my-svg .commit-highlight0{stroke:rgb(133.6571428571, 129.7428571428, 129.7428571428);fill:rgb(133.6571428571, 129.7428571428, 129.7428571428);}#my-svg .label0{fill:hsl(180, 1.5873015873%, 48.3529411765%);}#my-svg .arrow0{stroke:hsl(180, 1.5873015873%, 48.3529411765%);}#my-svg .branch-label1{fill:lightgrey;}#my-svg .commit1{stroke:hsl(321.6393442623, 65.5913978495%, 38.2352941176%);fill:hsl(321.6393442623, 65.5913978495%, 38.2352941176%);}#my-svg .commit-highlight1{stroke:rgb(93.5483870969, 221.4516129033, 139.677419355);fill:rgb(93.5483870969, 221.4516129033, 139.677419355);}#my-svg .label1{fill:hsl(321.6393442623, 65.5913978495%, 38.2352941176%);}#my-svg .arrow1{stroke:hsl(321.6393442623, 65.5913978495%, 38.2352941176%);}#my-svg .branch-label2{fill:lightgrey;}#my-svg .commit2{stroke:hsl(194.4, 16.5562913907%, 49.6078431373%);fill:hsl(194.4, 16.5562913907%, 49.6078431373%);}#my-svg .commit-highlight2{stroke:rgb(149.4437086091, 117.6092715231, 107.5562913906);fill:rgb(149.4437086091, 117.6092715231, 107.5562913906);}#my-svg .label2{fill:hsl(194.4, 16.5562913907%, 49.6078431373%);}#my-svg .arrow2{stroke:hsl(194.4, 16.5562913907%, 49.6078431373%);}#my-svg .branch-label3{fill:#2c2c2c;}#my-svg .commit3{stroke:hsl(23.0769230769, 49.0566037736%, 40.7843137255%);fill:hsl(23.0769230769, 49.0566037736%, 40.7843137255%);}#my-svg .commit-highlight3{stroke:rgb(99.9811320754, 162.7735849057, 202.0188679245);fill:rgb(99.9811320754, 162.7735849057, 202.0188679245);}#my-svg .label3{fill:hsl(23.0769230769, 49.0566037736%, 40.7843137255%);}#my-svg .arrow3{stroke:hsl(23.0769230769, 49.0566037736%, 40.7843137255%);}#my-svg .branch-label4{fill:lightgrey;}#my-svg .commit4{stroke:hsl(0, 83.3333333333%, 43.5294117647%);fill:hsl(0, 83.3333333333%, 43.5294117647%);}#my-svg .commit-highlight4{stroke:rgb(51.5000000001, 236.5, 236.5);fill:rgb(51.5000000001, 236.5, 236.5);}#my-svg .label4{fill:hsl(0, 83.3333333333%, 43.5294117647%);}#my-svg .arrow4{stroke:hsl(0, 83.3333333333%, 43.5294117647%);}#my-svg .branch-label5{fill:lightgrey;}#my-svg .commit5{stroke:hsl(289.1666666667, 100%, 24.1176470588%);fill:hsl(289.1666666667, 100%, 24.1176470588%);}#my-svg .commit-highlight5{stroke:rgb(154.2083333334, 255, 132.0000000001);fill:rgb(154.2083333334, 255, 132.0000000001);}#my-svg .label5{fill:hsl(289.1666666667, 100%, 24.1176470588%);}#my-svg .arrow5{stroke:hsl(289.1666666667, 100%, 24.1176470588%);}#my-svg .branch-label6{fill:lightgrey;}#my-svg .commit6{stroke:hsl(35.1315789474, 98.7012987013%, 40.1960784314%);fill:hsl(35.1315789474, 98.7012987013%, 40.1960784314%);}#my-svg .commit-highlight6{stroke:rgb(51.331168831, 135.1948051946, 253.6688311688);fill:rgb(51.331168831, 135.1948051946, 253.6688311688);}#my-svg .label6{fill:hsl(35.1315789474, 98.7012987013%, 40.1960784314%);}#my-svg .arrow6{stroke:hsl(35.1315789474, 98.7012987013%, 40.1960784314%);}#my-svg .branch-label7{fill:lightgrey;}#my-svg .commit7{stroke:hsl(106.1538461538, 84.4155844156%, 35.0980392157%);fill:hsl(106.1538461538, 84.4155844156%, 35.0980392157%);}#my-svg .commit-highlight7{stroke:rgb(206.1818181817, 89.948051948, 241.051948052);fill:rgb(206.1818181817, 89.948051948, 241.051948052);}#my-svg .label7{fill:hsl(106.1538461538, 84.4155844156%, 35.0980392157%);}#my-svg .arrow7{stroke:hsl(106.1538461538, 84.4155844156%, 35.0980392157%);}#my-svg .branch{stroke-width:1;stroke:lightgrey;stroke-dasharray:2;}#my-svg .commit-label{font-size:10px;fill:rgb(183.8476190475, 181.5523809523, 181.5523809523);}#my-svg .commit-label-bkg{font-size:10px;fill:hsl(180, 1.5873015873%, 28.3529411765%);opacity:0.5;}#my-svg .tag-label{font-size:10px;fill:#e0dfdf;}#my-svg .tag-label-bkg{fill:#1f2020;stroke:#cccccc;}#my-svg .tag-hole{fill:#ccc;}#my-svg .commit-merge{stroke:#1f2020;fill:#1f2020;}#my-svg .commit-reverse{stroke:#1f2020;fill:#1f2020;stroke-width:3;}#my-svg .commit-highlight-inner{stroke:#1f2020;fill:#1f2020;}#my-svg .arrow{stroke-width:8;stroke-linecap:round;fill:none;}#my-svg .gitTitleText{text-anchor:middle;font-size:18px;fill:#ccc;}#my-svg :root{--mermaid-font-family:"trebuchet ms",verdana,arial,sans-serif;}</style><g/><g class="commit-bullets"/><g class="commit-labels"/><g><line class="branch branch0" y2="0" x2="500" y1="0" x1="0"/><rect transform="translate(-19, -8.5)" height="21" width="52.6875" y="-0.5" x="-68.6875" ry="4" rx="4" class="branchLabelBkg label0"/><g class="branchLabel"><g transform="translate(-78.6875, -9.5)" class="label branch-label0"><text><tspan class="row" x="0" dy="1em" xml:space="preserve">main</tspan></text></g></g><line class="branch branch1" y2="90" x2="500" y1="90" x1="0"/><rect transform="translate(-19, 81.5)" height="21" width="117.609375" y="-0.5" x="-133.609375" ry="4" rx="4" class="branchLabelBkg label1"/><g class="branchLabel"><g transform="translate(-143.609375, 80.5)" class="label branch-label1"><text><tspan class="row" x="0" dy="1em" xml:space="preserve">release/v4.0.x</tspan></text></g></g><line class="branch branch2" y2="180" x2="500" y1="180" x1="0"/><rect transform="translate(-19, 171.5)" height="21" width="117.609375" y="-0.5" x="-133.609375" ry="4" rx="4" class="branchLabelBkg label2"/><g class="branchLabel"><g transform="translate(-143.609375, 170.5)" class="label branch-label2"><text><tspan class="row" x="0" dy="1em" xml:space="preserve">release/v5.0.x</tspan></text></g></g><line class="branch branch3" y2="270" x2="500" y1="270" x1="0"/><rect transform="translate(-19, 261)" height="22" width="171.875" y="-1" x="-187.875" ry="4" rx="4" class="branchLabelBkg label3"/><g class="branchLabel"><g transform="translate(-197.875, 260)" class="label branch-label3"><text><tspan class="row" x="0" dy="1em" xml:space="preserve">bugfix/error_condition</tspan></text></g></g></g><g class="commit-arrows"><path class="arrow arrow1" d="M 10 0 L 10 70 A 20 20, 0, 0, 0, 30 90 L 60 90"/><path class="arrow arrow0" d="M 10 0 L 110 0"/><path class="arrow arrow1" d="M 60 90 L 90 90 A 20 20, 0, 0, 0, 110 70 L 110 0"/><path class="arrow arrow2" d="M 110 0 L 110 160 A 20 20, 0, 0, 0, 130 180 L 160 180"/><path class="arrow arrow3" d="M 60 90 L 60 250 A 20 20, 0, 0, 0, 80 270 L 210 270"/><path class="arrow arrow3" d="M 210 270 L 260 270"/><path class="arrow arrow1" d="M 60 90 L 310 90"/><path class="arrow arrow3" d="M 260 270 L 290 270 A 20 20, 0, 0, 0, 310 250 L 310 90"/><path class="arrow arrow0" d="M 110 0 L 360 0"/><path class="arrow arrow1" d="M 310 90 L 340 90 A 20 20, 0, 0, 0, 360 70 L 360 0"/><path class="arrow arrow2" d="M 160 180 L 410 180"/><path class="arrow arrow0" d="M 360 0 L 460 0"/><path class="arrow arrow2" d="M 410 180 L 440 180 A 20 20, 0, 0, 0, 460 160 L 460 0"/></g><g class="commit-bullets"><circle class="commit 0-c194d9e commit0" r="10" cy="0" cx="10"/><circle class="commit 1-3268e5f commit1" r="10" cy="90" cx="60"/><circle class="commit 2-f53acb1 commit0" r="9" cy="0" cx="110"/><circle class="commit commit-merge 2-f53acb1 commit0" r="6" cy="0" cx="110"/><circle class="commit 3-4808906 commit2" r="10" cy="180" cx="160"/><circle class="commit 4-57cd7e9 commit3" r="10" cy="270" cx="210"/><circle class="commit 5-a55218e commit3" r="10" cy="270" cx="260"/><circle class="commit 6-5b06519 commit1" r="9" cy="90" cx="310"/><circle class="commit commit-merge 6-5b06519 commit1" r="6" cy="90" cx="310"/><circle class="commit 7-dc417df commit0" r="9" cy="0" cx="360"/><circle class="commit commit-merge 7-dc417df commit0" r="6" cy="0" cx="360"/><circle class="commit 8-cebe804 commit2" r="10" cy="180" cx="410"/><circle class="commit 9-a10d71f commit0" r="9" cy="0" cx="460"/><circle class="commit commit-merge 9-a10d71f commit0" r="6" cy="0" cx="460"/></g><g class="commit-labels"><polygon points="-15.83984375,-17.2  &#10;      -15.83984375,-21.2&#10;      -7.83984375,-26.7&#10;      27.83984375,-26.7&#10;      27.83984375,-11.7&#10;      -7.83984375,-11.7" class="tag-label-bkg"/><circle class="tag-hole" r="1.5" cx="-11.83984375" cy="-19.2"/><text x="-3.83984375" class="tag-label" y="-16">v3.0.0</text><polygon points="84.16015625,-17.2  &#10;      84.16015625,-21.2&#10;      92.16015625,-26.7&#10;      127.83984375,-26.7&#10;      127.83984375,-11.7&#10;      92.16015625,-11.7" class="tag-label-bkg"/><circle class="tag-hole" r="1.5" cx="88.16015625" cy="-19.2"/><text x="96.16015625" class="tag-label" y="-16">v4.0.0</text><polygon points="334.16015625,-17.2  &#10;      334.16015625,-21.2&#10;      342.16015625,-26.7&#10;      377.83984375,-26.7&#10;      377.83984375,-11.7&#10;      342.16015625,-11.7" class="tag-label-bkg"/><circle class="tag-hole" r="1.5" cx="338.16015625" cy="-19.2"/><text x="346.16015625" class="tag-label" y="-16">v4.0.1</text><polygon points="434.16015625,-17.2  &#10;      434.16015625,-21.2&#10;      442.16015625,-26.7&#10;      477.83984375,-26.7&#10;      477.83984375,-11.7&#10;      442.16015625,-11.7" class="tag-label-bkg"/><circle class="tag-hole" r="1.5" cx="438.16015625" cy="-19.2"/><text x="446.16015625" class="tag-label" y="-16">v5.0.0</text></g></svg>